<svg width="150" height="158" viewBox="0 0 150 158" fill="none" xmlns="http://www.w3.org/2000/svg">
<path d="M143.682 139.631H113.048L119.263 153.26C120.352 155.648 122.746 157.182 125.385 157.182H147.757C149.36 157.182 150.445 155.558 149.822 154.091L143.682 139.631Z" fill="white"/>
<path d="M32.8591 95.2154H54.2639C55.5931 95.2154 56.7834 94.3993 57.2621 93.1672C61.4726 82.3329 69.1667 63.6792 71.6512 62.0335C73.6005 60.7422 75.2709 60.9552 76.3109 61.4492C76.9369 61.7466 77.3307 62.3405 77.6479 62.9538C83.763 74.7717 95.1101 97.434 95.1101 100.426C95.1101 103.497 93.0862 104.448 92.0742 104.539C31.413 105.733 6.71042 134.073 0.23045 152.024C-0.717146 154.649 1.38588 157.192 4.19259 157.192H24.3151C25.2339 157.192 26.0458 156.631 26.4602 155.816C38.216 132.714 106.152 129.521 139.268 130.865L80.754 3.89773C78.366 -1.28361 70.9641 -1.30374 68.5476 3.86452L28.7956 88.8876C27.4157 91.8387 29.5844 95.2154 32.8591 95.2154Z" fill="white"/>
</svg>
